<?xml version="1.0" encoding="utf-8"?>
<!-- Generator: Adobe Illustrator 28.0.0, SVG Export Plug-In . SVG Version: 6.00 Build 0)  -->
<svg version="1.1" id="Layer_1" xmlns="http://www.w3.org/2000/svg" xmlns:xlink="http://www.w3.org/1999/xlink" x="0px" y="0px"
	 viewBox="0 0 184.48 58.56" style="enable-background:new 0 0 184.48 58.56;" xml:space="preserve">
<style type="text/css">
	.st0{fill:#8BB2F2;}
</style>
<g>
	<path class="st0" d="M21.11,21.22v0.17l-0.15,0.9c0,0.09-0.03,0.2-0.03,0.29c0,0.09-0.03,0.17-0.03,0.26
		c-0.38,0.84-0.75,1.68-1.33,2.41l-0.2,0.2c-0.32,0.32-0.67,0.61-1.02,0.84l-0.23,0.17c-0.81,0.49-1.74,0.64-2.64,0.84h-0.44
		c-1.31-0.09-2.64,0.09-3.89-0.38l-0.38-0.15c-0.67-0.32-1.28-0.61-1.74-1.16l-0.23-0.26c-0.2-0.26-0.41-0.52-0.55-0.84
		c-0.2-0.38-0.41-0.81-0.55-1.31c-0.26-0.73-0.38-1.51-0.46-2.29C7.15,20.46,7.12,20,7.09,19.54v-0.26c-0.03-0.78,0-1.51-0.09-2.29
		v-0.26C6.98,16,6.98,15.3,7.07,14.58c0-0.09,0.03-0.17,0.03-0.26l0.06-0.78c0-0.09,0.03-0.17,0.03-0.26l0.06-0.55
		c0.09-0.78,0.2-1.57,0.46-2.29C7.85,9.93,8.05,9.5,8.25,9.12C8.4,8.8,8.6,8.54,8.81,8.28l0.23-0.26c0.46-0.55,1.07-0.84,1.74-1.16
		l0.38-0.15c1.25-0.46,2.58-0.29,3.89-0.38h0.44c0.9,0.2,1.83,0.35,2.64,0.84l0.23,0.17c0.35,0.23,0.7,0.52,1.02,0.84l0.2,0.2
		c0.29,0.35,0.52,0.7,0.67,1.04c0.09,0.15,0.2,0.35,0.29,0.55c0.23,0.38,0.32,0.75,0.41,1.19l0.06,0.23
		c0.09,0.58,0.29,1.22-0.03,1.77c-0.03,0.03-0.03,0.09-0.03,0.15c-0.58,0.32-1.22,0.29-1.89,0.15h-0.99c-0.32,0-0.7,0.09-0.9-0.12
		c-0.23-0.26-0.26-0.7-0.35-1.07l-0.06-0.26c-0.09-0.26-0.2-0.49-0.41-0.75c-0.09-0.15-0.17-0.23-0.26-0.35l-0.17-0.15l-0.17-0.12
		c-0.78-0.38-1.71-0.44-2.55-0.35L12.9,10.4c-0.32,0.09-0.58,0.26-0.81,0.52l-0.2,0.2c-0.09,0.12-0.12,0.2-0.15,0.26
		c-0.09,0.15-0.17,0.26-0.23,0.41c-0.09,0.29-0.17,0.61-0.2,0.96c0,0.09-0.03,0.17-0.03,0.26c-0.06,0.32-0.09,0.64-0.09,0.93
		c-0.03,0.44-0.06,0.78-0.06,1.16c0,0.12-0.03,0.2-0.03,0.29c0.09,0.84-0.03,1.71-0.03,2.55c0,0.12,0.03,0.2,0.03,0.32
		c0,0.09,0.03,0.17,0.03,0.29c0,0.38,0.03,0.73,0.06,1.16c0,0.32,0.03,0.61,0.09,0.93c0,0.09,0.03,0.17,0.03,0.26
		c0.03,0.35,0.12,0.67,0.2,0.96c0.06,0.15,0.15,0.26,0.23,0.41c0.03,0.06,0.06,0.15,0.15,0.26l0.2,0.2
		c0.23,0.26,0.49,0.44,0.81,0.52l0.29,0.09c0.84,0.09,1.77,0.03,2.55-0.35l0.17-0.12l0.17-0.15c0.09-0.12,0.17-0.2,0.26-0.35
		c0.26-0.32,0.38-0.67,0.46-1.02l0.06-0.29c0-0.09,0.03-0.12,0.03-0.2c0-0.2,0.03-0.41,0.12-0.55c0.06-0.15,0.15-0.29,0.29-0.38
		c0.9-0.46,1.97-0.03,2.96-0.17c0.2,0,0.35,0,0.44,0.03c0.15,0.06,0.26,0.12,0.32,0.17C21.25,20.23,21.19,20.78,21.11,21.22z"/>
	<path class="st0" d="M38.16,16.98c0.03,0.93,0.09,1.89,0,2.84c-0.03,0.38-0.03,0.75-0.12,1.19c-0.03,0.12-0.03,0.26-0.03,0.38
		l-0.15,0.9c0,0.09-0.03,0.2-0.03,0.29c0,0.09-0.03,0.17-0.03,0.26c-0.38,0.84-0.75,1.68-1.33,2.41l-0.2,0.2
		c-0.32,0.32-0.67,0.61-1.02,0.84l-0.23,0.17c-0.81,0.49-1.74,0.64-2.64,0.84h-0.44c-1.31-0.09-2.64,0.09-3.89-0.38l-0.38-0.15
		c-0.67-0.32-1.28-0.61-1.74-1.16l-0.23-0.26c-0.2-0.26-0.41-0.52-0.55-0.84c-0.2-0.38-0.41-0.81-0.55-1.31
		c-0.26-0.73-0.38-1.51-0.46-2.29C24.06,20.46,24.03,20,24,19.54v-0.26c-0.03-0.78,0-1.51-0.09-2.29v-0.26
		c-0.03-0.73-0.03-1.42,0.06-2.15c0-0.09,0.03-0.17,0.03-0.26l0.06-0.78c0-0.09,0.03-0.17,0.03-0.26l0.06-0.55
		c0.09-0.78,0.2-1.57,0.46-2.29c0.15-0.49,0.35-0.93,0.55-1.31c0.15-0.32,0.35-0.58,0.55-0.84l0.23-0.26
		c0.46-0.55,1.07-0.84,1.74-1.16l0.38-0.15c1.25-0.46,2.58-0.29,3.89-0.38h0.44c0.9,0.2,1.83,0.35,2.64,0.84l0.23,0.17
		c0.35,0.23,0.7,0.52,1.02,0.84l0.2,0.2c0.29,0.35,0.52,0.7,0.67,1.04c0.09,0.15,0.2,0.35,0.29,0.55c0.46,0.78,0.46,1.65,0.61,2.49
		l0.06,0.55v0.2l0.06,0.58c0.09,0.96,0.03,1.91,0,2.84V16.98z M33.95,18.46c-0.03-0.49,0.09-0.99,0.09-1.48v-0.26
		c0-0.32-0.03-0.55-0.06-0.81v-1.16c0-0.26,0-0.52,0.03-0.75l-0.06-0.32c0-0.23-0.03-0.58-0.15-0.81c-0.09-0.58-0.17-1.13-0.55-1.6
		c-0.09-0.15-0.17-0.23-0.26-0.35l-0.17-0.15l-0.17-0.12c-0.78-0.38-1.71-0.44-2.55-0.35L29.8,10.4c-0.32,0.09-0.58,0.26-0.81,0.52
		l-0.2,0.2c-0.09,0.12-0.12,0.2-0.15,0.26c-0.09,0.15-0.17,0.26-0.23,0.41c-0.09,0.29-0.17,0.61-0.2,0.96
		c0,0.09-0.03,0.17-0.03,0.26c-0.06,0.32-0.09,0.64-0.09,0.93c-0.03,0.44-0.06,0.78-0.06,1.16c0,0.12-0.03,0.2-0.03,0.29
		c0.09,0.84-0.03,1.71-0.03,2.55c0,0.12,0.03,0.2,0.03,0.32c0,0.09,0.03,0.17,0.03,0.29c0,0.38,0.03,0.73,0.06,1.16
		c0,0.32,0.03,0.61,0.09,0.93c0,0.09,0.03,0.17,0.03,0.26c0.03,0.35,0.12,0.67,0.2,0.96c0.06,0.15,0.15,0.26,0.23,0.41
		c0.03,0.06,0.06,0.15,0.15,0.26l0.2,0.2c0.23,0.26,0.49,0.44,0.81,0.52l0.29,0.09c0.84,0.09,1.77,0.03,2.55-0.35l0.17-0.12
		l0.17-0.15c0.09-0.12,0.17-0.2,0.26-0.35c0.38-0.46,0.46-1.02,0.55-1.6c0.12-0.23,0.15-0.58,0.15-0.81l0.06-0.32
		c-0.03-0.09-0.03-0.2-0.03-0.38v-0.61C33.98,18.58,33.95,18.55,33.95,18.46z"/>
	<path class="st0" d="M55.09,21.22v0.17l-0.15,0.9c0,0.09-0.03,0.2-0.03,0.29c0,0.09-0.03,0.17-0.03,0.26
		c-0.38,0.84-0.75,1.68-1.33,2.41l-0.2,0.2c-0.32,0.32-0.67,0.61-1.02,0.84l-0.23,0.17c-0.81,0.49-1.74,0.64-2.64,0.84h-0.44
		c-1.31-0.09-2.64,0.09-3.89-0.38l-0.38-0.15c-0.67-0.32-1.28-0.61-1.74-1.16l-0.23-0.26c-0.2-0.26-0.41-0.52-0.55-0.84
		c-0.2-0.38-0.41-0.81-0.55-1.31c-0.26-0.73-0.38-1.51-0.46-2.29c-0.09-0.46-0.12-0.93-0.15-1.39v-0.26c-0.03-0.78,0-1.51-0.09-2.29
		v-0.26c-0.03-0.73-0.03-1.42,0.06-2.15c0-0.09,0.03-0.17,0.03-0.26l0.06-0.78c0-0.09,0.03-0.17,0.03-0.26l0.06-0.55
		c0.09-0.78,0.2-1.57,0.46-2.29c0.15-0.49,0.35-0.93,0.55-1.31c0.15-0.32,0.35-0.58,0.55-0.84l0.23-0.26
		c0.46-0.55,1.07-0.84,1.74-1.16l0.38-0.15c1.25-0.46,2.58-0.29,3.89-0.38h0.44c0.9,0.2,1.83,0.35,2.64,0.84l0.23,0.17
		c0.35,0.23,0.7,0.52,1.02,0.84l0.2,0.2c0.29,0.35,0.52,0.7,0.67,1.04c0.09,0.15,0.2,0.35,0.29,0.55c0.23,0.38,0.32,0.75,0.41,1.19
		l0.06,0.23c0.09,0.58,0.29,1.22-0.03,1.77c-0.03,0.03-0.03,0.09-0.03,0.15c-0.58,0.32-1.22,0.29-1.89,0.15h-0.99
		c-0.32,0-0.7,0.09-0.9-0.12c-0.23-0.26-0.26-0.7-0.35-1.07l-0.06-0.26c-0.09-0.26-0.2-0.49-0.41-0.75
		c-0.09-0.15-0.17-0.23-0.26-0.35l-0.17-0.15l-0.17-0.12c-0.78-0.38-1.71-0.44-2.55-0.35l-0.29,0.09c-0.32,0.09-0.58,0.26-0.81,0.52
		l-0.2,0.2c-0.09,0.12-0.12,0.2-0.15,0.26c-0.09,0.15-0.17,0.26-0.23,0.41c-0.09,0.29-0.17,0.61-0.2,0.96
		c0,0.09-0.03,0.17-0.03,0.26c-0.06,0.32-0.09,0.64-0.09,0.93c-0.03,0.44-0.06,0.78-0.06,1.16c0,0.12-0.03,0.2-0.03,0.29
		c0.09,0.84-0.03,1.71-0.03,2.55c0,0.12,0.03,0.2,0.03,0.32c0,0.09,0.03,0.17,0.03,0.29c0,0.38,0.03,0.73,0.06,1.16
		c0,0.32,0.03,0.61,0.09,0.93c0,0.09,0.03,0.17,0.03,0.26c0.03,0.35,0.12,0.67,0.2,0.96c0.06,0.15,0.15,0.26,0.23,0.41
		c0.03,0.06,0.06,0.15,0.15,0.26l0.2,0.2c0.23,0.26,0.49,0.44,0.81,0.52l0.29,0.09c0.84,0.09,1.77,0.03,2.55-0.35l0.17-0.12
		l0.17-0.15c0.09-0.12,0.17-0.2,0.26-0.35c0.26-0.32,0.38-0.67,0.46-1.02l0.06-0.29c0-0.09,0.03-0.12,0.03-0.2
		c0-0.2,0.03-0.41,0.12-0.55c0.06-0.15,0.15-0.29,0.29-0.38c0.9-0.46,1.97-0.03,2.96-0.17c0.2,0,0.35,0,0.44,0.03
		c0.15,0.06,0.26,0.12,0.32,0.17C55.24,20.23,55.18,20.78,55.09,21.22z"/>
	<path class="st0" d="M72.32,17.94v0.81c0.03,0.2,0.03,0.32,0.03,0.46c0,0.78,0,1.45-0.03,2.23c0,0.2,0,0.35-0.03,0.44
		c-0.03,0.26-0.03,0.55-0.03,0.81v1.02c0.03,0.03,0.03,0.12,0.03,0.2c0.03,0.84,0.2,1.68,0,2.52c-0.17,0.81-1.1,0.55-1.71,0.64
		h-0.32c-0.46,0-0.9-0.03-1.25-0.06c-0.15-0.03-0.26,0-0.35-0.09c-0.35-0.09-0.55-0.35-0.61-0.75c-0.15-1.02,0.15-2,0.06-3.02V22.7
		c0-0.15-0.03-0.29-0.03-0.44c0-0.17,0-0.32,0.03-0.41c0-0.44,0.03-0.78,0.03-1.22v-0.2c-0.44-0.03-0.84-0.09-1.28-0.09h-1.86
		c-0.96,0-1.89-0.03-2.84-0.03c0,0.09,0,0.12,0.03,0.15c-0.03,0.93,0,1.89,0,2.81c-0.03,0.06-0.03,0.15-0.03,0.29
		c-0.03,0.32-0.06,0.58-0.06,0.9v0.46c-0.03,0.2-0.03,0.44,0,0.64v0.35c-0.03,0.32-0.03,0.73-0.23,0.93
		c-0.09,0.09-0.17,0.12-0.26,0.12c-0.55-0.03-1.04,0.06-1.54,0.09c-0.15,0-0.23,0-0.32,0.03c-0.55-0.03-1.31,0.09-1.62-0.46
		c-0.35-0.61-0.09-1.28-0.12-1.94c0.03-0.09,0.03-0.17,0.03-0.32c0-0.2,0-0.35,0.03-0.44v-0.23c0.09-0.81,0.06-1.6,0.06-2.41
		c0-0.12,0-0.2-0.03-0.26c-0.03-0.55-0.06-1.1-0.03-1.65v-0.35c0-0.46,0.03-0.96,0.03-1.42c0-0.96,0.06-1.94,0.09-2.9
		c0.03-0.7,0.09-1.42,0.17-2.15c0.09-0.78,0.2-1.57,0.46-2.29c0.15-0.49,0.35-0.93,0.55-1.31c0.15-0.32,0.35-0.58,0.55-0.84
		l0.23-0.26c0.46-0.55,1.07-0.84,1.74-1.16l0.38-0.15c1.25-0.46,2.58-0.29,3.89-0.38h0.44c1.16,0.12,2.38,0.29,3.31,1.07l0.15,0.12
		c0.67,0.67,1.25,1.42,1.68,2.26l0.12,0.32c0.09,0.32,0.17,0.61,0.2,0.96c0,0.09,0.03,0.2,0.03,0.29l0.15,0.9
		c0,0.12,0,0.26,0.03,0.38c0.09,0.44,0.09,0.81,0.12,1.19c0.09,0.96,0.03,1.91,0,2.84C72.38,16.98,72.35,17.45,72.32,17.94z
		 M68.29,16.37c0-0.26-0.03-0.49-0.03-0.75c0-0.09-0.03-0.2-0.03-0.29c-0.03-0.52-0.03-1.02,0-1.51l-0.06-0.32
		c0-0.23-0.03-0.58-0.15-0.81c-0.09-0.58-0.17-1.13-0.55-1.6c-0.09-0.15-0.17-0.23-0.26-0.35l-0.17-0.15l-0.17-0.12
		c-0.78-0.38-1.71-0.44-2.55-0.35l-0.29,0.09c-0.32,0.09-0.58,0.26-0.81,0.52l-0.2,0.2c-0.09,0.12-0.12,0.2-0.15,0.26
		c-0.09,0.15-0.17,0.26-0.23,0.41c-0.09,0.29-0.17,0.61-0.2,0.96c0,0.09-0.03,0.17-0.03,0.26c-0.06,0.32-0.09,0.64-0.09,0.93
		c-0.09,0.84-0.09,1.65-0.12,2.49c0.93,0,1.89,0.03,2.81,0.03c0.67,0,1.28-0.03,1.89,0C67.36,16.29,67.82,16.34,68.29,16.37z"/>
	<path class="st0" d="M79.51,24.73v0.26c-0.09,0.67,0.17,1.33-0.06,1.83c-0.38,0.7-1.39,0.12-2.2,0.29h-0.29
		c-0.41,0.03-0.78,0-1.1-0.12c-0.09-0.09-0.12-0.06-0.2-0.15c-0.32-0.26-0.09-1.04-0.09-1.62v-0.2c0-2.44-0.03-6.12-0.03-6.96v-1.33
		c-0.03-0.84,0.03-1.68,0.06-2.52c0-0.09,0.03-0.17,0.03-0.26v-0.29c0-0.06,0-0.09,0.03-0.12V8.08c-0.06-0.23-0.09-0.44-0.06-0.61
		c0-0.12,0.03-0.2,0.03-0.29c0.15-0.38,0.44-0.49,0.75-0.58c0.09,0,0.17-0.03,0.26-0.03c0.9-0.03,1.68-0.09,2.58,0.06
		c0.09,0.03,0.15,0.09,0.17,0.12c0.09,0.03,0.12,0.09,0.15,0.17c0.15,0.26,0.2,0.67,0.12,1.02c0.03,0.03,0.03,0.12,0.03,0.23v0.32
		c0,0.2,0,0.38-0.03,0.58V9.3c0,1.02,0.03,1.94,0.03,2.09v2.55c-0.03,0.44-0.06,0.78-0.06,1.16c0,0.12-0.03,0.2-0.03,0.29
		c0.09,0.84-0.03,1.71-0.03,2.55v6.24C79.54,24.38,79.51,24.52,79.51,24.73z"/>
	<path class="st0" d="M97.9,8.48c0,0.2,0,0.38-0.03,0.58V9.3c0,1.02,0.03,1.94,0.03,2.09v2.55c-0.03,0.44-0.06,0.78-0.06,1.16
		c0,0.12-0.03,0.2-0.03,0.29c0.09,0.84-0.03,1.71-0.03,2.55v6.24c-0.03,0.2-0.06,0.35-0.06,0.55v0.41
		c-0.03,0.61,0.15,1.22-0.06,1.68c-0.38,0.7-1.39,0.12-2.2,0.29h-0.64c-0.78,0.15-1.02-0.84-1.39-1.31
		c-0.03-0.09-0.09-0.15-0.15-0.23c-0.38-0.67-0.73-1.28-1.16-1.94l-0.15-0.23l-0.2-0.35l-0.12-0.17c0-0.12-0.06-0.23-0.15-0.38
		c-0.55-0.55-0.78-1.28-1.25-1.89l-0.15-0.2l-0.12-0.2c-0.44-0.78-0.78-1.54-1.33-2.26c-0.03-0.09-0.03-0.12-0.12-0.2l-0.09-0.2
		c-0.03-0.09-0.03-0.12-0.12-0.2c-0.03-0.09-0.09-0.15-0.12-0.17c-0.49-0.67-0.73-1.36-1.16-2.06c0.03,0.55,0.09,1.04,0.06,1.6v0.2
		c-0.03,0.35-0.03,0.7-0.03,1.04v6.24c-0.09,0.35-0.06,0.7-0.06,1.04v0.26c0.03,0.49,0.15,0.96-0.06,1.33
		c-0.38,0.7-1.39,0.12-2.2,0.29H84.5c-0.41,0.03-0.78,0-1.1-0.12l-0.2-0.15c-0.32-0.26-0.09-1.04-0.09-1.62v-0.2
		c0-2.44-0.03-6.12-0.03-6.96v-1.6l0.09-2.52v-0.29c0-0.03,0.03-0.06,0.03-0.09V8.08c-0.06-0.23-0.09-0.44-0.06-0.61
		c0-0.12,0.03-0.2,0.03-0.29c0.15-0.38,0.44-0.49,0.75-0.58c0.09,0,0.17-0.03,0.26-0.03c0.26,0,0.52-0.03,0.75-0.03h0.26
		c0.49-0.03,0.99-0.06,1.42,0.15c0.09,0.03,0.15,0.09,0.17,0.12l0.12,0.15l0.09,0.15c0.2,0.67,0.7,1.19,1.07,1.8
		c0.03,0.09,0.03,0.12,0.12,0.2l0.15,0.2l0.12,0.23l0.55,0.9l0.15,0.2c0.09,0.09,0.15,0.17,0.17,0.23c0.03,0.06,0.09,0.15,0.12,0.26
		c0.2,0.44,0.46,0.81,0.7,1.25c0.06,0.09,0.12,0.15,0.15,0.23l0.44,0.9l0.15,0.23c0.15,0.32,0.32,0.61,0.55,0.9l0.17,0.23
		c0.46,0.55,0.75,1.16,1.07,1.83l0.15,0.23l0.12,0.2l0.15,0.2c0.26,0.38,0.49,0.78,0.7,1.22v-2.12c0-0.67-0.03-1.31,0.06-1.97V14.2
		c0-0.09,0.03-0.17,0.03-0.26c-0.06-0.49-0.09-0.99-0.09-1.51c0-0.12,0-0.2,0.03-0.26c0-0.75,0.03-1.51,0.09-2.26V8.08
		c-0.06-0.23-0.09-0.44-0.06-0.61c0-0.12,0.03-0.2,0.03-0.29c0.15-0.38,0.44-0.49,0.75-0.58c0.09,0,0.17-0.03,0.26-0.03
		c0.9-0.03,1.68-0.09,2.58,0.06c0.09,0.03,0.15,0.09,0.17,0.12c0.09,0.03,0.12,0.09,0.15,0.17c0.15,0.26,0.2,0.67,0.12,1.02
		c0.03,0.03,0.03,0.12,0.03,0.23V8.48z"/>
	<path class="st0" d="M113.59,23.77c-0.09,0.9,0.12,1.83-0.15,2.76l-0.06,0.17l-0.15,0.2c-0.26,0.32-1.04,0.09-1.62,0.09h-0.2
		c-1.62,0-3.63,0.03-5.11,0.03h-0.64c-0.9,0.03-1.77-0.06-2.67,0.03h-0.29c-0.46,0.03-0.87,0.03-1.31-0.2
		c-0.03-0.03-0.09-0.09-0.12-0.17c-0.12-0.35,0.03-0.96,0.03-1.45v-0.2c0-2.44-0.03-6.12-0.03-6.96v-1.33
		c-0.03-0.55,0-1.02,0.03-1.57v-0.32c0.03-1.04,0-2.09,0.09-3.13v-0.2c-0.03-0.73,0-1.57,0-2.38V8.08
		c-0.06-0.23-0.09-0.44-0.06-0.61c0-0.12,0.03-0.2,0.03-0.29c0.15-0.38,0.44-0.49,0.75-0.58c0.09,0,0.17-0.03,0.26-0.03
		c0.81-0.03,1.6-0.09,2.41,0.03h5.77c0.2,0.03,0.35,0.06,0.55,0.06h0.26c0.67,0.09,1.33-0.17,1.83,0.06
		c0.35,0.2,0.38,0.52,0.35,0.96c0,0.09-0.03,0.2-0.03,0.32c-0.12,0.55,0,1.04-0.03,1.6v0.17c-0.03,0.23-0.09,0.41-0.12,0.55
		l-0.15,0.2c-0.26,0.32-1.04,0.09-1.62,0.09h-0.2c-2,0-4.52,0.03-6,0.03c0,0.38,0.03,0.67,0.03,0.75v2.55
		c-0.03,0.15-0.03,0.29-0.03,0.41h5.16c0.2,0.03,0.35,0.06,0.55,0.06h0.61c0.49,0.09,0.99-0.15,1.42,0.12
		c0.2,0.15,0.29,0.38,0.26,0.64v0.2l-0.09,0.96v0.32c-0.03,0.2-0.03,0.38-0.03,0.58v0.29c0.15,1.16-1.19,0.75-1.89,0.84h-0.35
		c-2,0-4.41,0.03-5.74,0.03v0.26c0.03,0.9,0,1.71,0,2.61v1.74h5.25c0.2,0.03,0.35,0.06,0.55,0.06h0.26
		c0.67,0.09,1.33-0.17,1.83,0.06c0.17,0.09,0.29,0.23,0.32,0.38L113.59,23.77z"/>
	<path class="st0" d="M143.4,24.84c0,0.15,0,0.32-0.03,0.46c-0.03,0.32,0.06,0.55-0.09,0.87c-0.03,0.06-0.09,0.15-0.17,0.23
		l-0.17,0.2l-0.23,0.15c-0.78,0.35-1.74,0.26-2.58,0.23c-0.09,0-0.17,0-0.2-0.03c-0.15,0-0.32,0-0.46-0.03h-0.29
		c-0.2,0-0.38-0.03-0.55-0.09c-0.2-0.03-0.32-0.06-0.52-0.15c-0.35-0.15-0.67-0.29-0.99-0.49l-0.44-0.32
		c-0.12,0.12-0.26,0.2-0.41,0.29l-0.23,0.17c-0.49,0.32-1.02,0.46-1.57,0.61c-0.12,0.03-0.2,0.06-0.26,0.06
		c-0.35,0.09-0.67,0.17-1.04,0.17h-0.2c-1.31-0.09-2.64,0.09-3.89-0.38l-0.38-0.15c-0.67-0.32-1.28-0.61-1.74-1.16l-0.23-0.26
		l-0.09-0.15c-0.61-0.67-0.96-1.51-1.16-2.35l-0.06-0.29l-0.09-0.41c-0.03-0.15-0.06-0.29-0.06-0.41c0-0.2-0.03-0.38-0.03-0.58V20.9
		c-0.03-0.84,0.15-1.6,0.52-2.29l0.15-0.2c0.44-0.73,0.93-1.36,1.74-1.62c-0.32-0.15-0.49-0.35-0.81-0.55l-0.15-0.12l-0.15-0.17
		l-0.17-0.17c-0.26-0.32-0.52-0.67-0.67-1.04c-0.03-0.06-0.09-0.15-0.12-0.26c-0.15-0.44-0.23-0.87-0.32-1.31v-0.44
		c-0.03-0.15-0.03-0.32-0.03-0.46v-0.2c0.03-1.02,0.29-1.94,0.75-2.78c0.09-0.12,0.12-0.2,0.15-0.26l0.17-0.23l0.35-0.41l0.2-0.23
		c0.32-0.35,0.7-0.67,1.1-0.93l0.23-0.12l0.49-0.23l0.38-0.15c1.02-0.38,2-0.35,3.05-0.35h0.29c0.9-0.03,1.77,0.15,2.61,0.35
		l0.26,0.09c0.26,0.12,0.52,0.23,0.75,0.38l0.23,0.17c0.35,0.23,0.7,0.52,1.02,0.84l0.2,0.2c0.29,0.35,0.52,0.7,0.67,1.04
		c0.09,0.15,0.2,0.35,0.29,0.55c0.23,0.38,0.32,0.75,0.41,1.19l0.06,0.23v0.03c0,0.06,0,0.09,0.03,0.12c0,0.15,0,0.23,0.03,0.32
		c0.03,0.2,0.03,0.41,0,0.61c-0.15,0.84-1.04,1.16-1.83,1.07h-0.52c-0.06-0.03-0.15-0.03-0.26-0.03h-0.26
		c-0.78,0.09-1.33-0.46-1.36-1.25l-0.06-0.26c-0.09-0.26-0.2-0.49-0.41-0.75c-0.09-0.15-0.17-0.23-0.26-0.35l-0.17-0.15l-0.17-0.12
		c-0.78-0.38-1.71-0.44-2.55-0.35l-0.29,0.09c-0.32,0.09-0.58,0.26-0.81,0.52l-0.2,0.2c-0.09,0.12-0.12,0.2-0.15,0.26
		c-0.06,0.06-0.09,0.12-0.12,0.2c-0.09,0.15-0.15,0.29-0.17,0.49c-0.03,0.03-0.03,0.09-0.03,0.17c-0.12,0.93,0.2,1.97,1.04,2.47
		l0.23,0.15c0.23,0.12,0.46,0.2,0.73,0.26c0.09,0,0.12,0.03,0.2,0.03c0.2,0.09,0.32,0.06,0.52,0.09h0.17
		c0.23,0.09,1.62,0.06,3.28,0.03h0.46c0.46-0.09,0.93,0,1.39-0.03h2.78c0.61-0.15,1.71-0.03,1.54,0.84v0.29
		c0.03,0.32,0.03,0.58,0.03,0.84c-0.03,0.09-0.03,0.17-0.03,0.29c0.09,1.25-1.42,0.93-2.23,0.93c-0.09,0-0.12,0.03-0.2,0.03h-0.17
		c-0.09,0.2-0.03,0.44-0.03,0.64v0.55c0,0.73-0.03,1.45,0.09,2.18l0.09,0.29c0.03,0.12,0.09,0.2,0.12,0.26l0.15,0.17l0.2,0.17
		l0.32,0.15c0.12,0.06,0.23,0.09,0.35,0.09c0.78,0.15,1.36-0.06,2.15,0.09c0.23,0.09,0.41,0.15,0.52,0.23l0.17,0.17
		c0.09,0.12,0.12,0.2,0.15,0.26C143.46,24.06,143.4,24.47,143.4,24.84z M135.02,18.52h-2.12c-0.55,0-1.07-0.03-1.62,0.06
		c-0.2,0.03-0.32,0.03-0.52,0.12l-0.49,0.23l-0.2,0.17c-0.29,0.23-0.49,0.55-0.58,0.93c-0.03,0.09-0.06,0.15-0.06,0.23
		c-0.06,0.17-0.09,0.35-0.09,0.52c0,0.09,0,0.15-0.03,0.2c0,0.15,0,0.23,0.03,0.32c0,0.09,0,0.15,0.03,0.17
		c0,0.2,0.12,0.32,0.2,0.46c0.03,0.09,0.06,0.17,0.12,0.2c0.23,0.38,0.49,0.7,0.93,0.9l0.2,0.09l0.29,0.09
		c0.2,0.03,0.32,0.03,0.52,0.03h0.26c0.46,0.03,0.96,0.03,1.39-0.17l0.2-0.09c0.49-0.26,0.96-0.67,1.16-1.22
		c0.09-0.09,0.09-0.2,0.12-0.29c0.15-0.38,0.23-0.78,0.26-1.16V18.52z"/>
	<path class="st0" d="M20.96,50.99c-0.44,0.09-0.75,0.03-1.19,0h-1.19c-0.09,0-0.17-0.03-0.26-0.03c-0.7,0.09-1.45-0.12-1.89-0.7
		c-0.09-0.09-0.06-0.12-0.15-0.15l-0.7-1.02l-0.15-0.23l-0.46-0.67L14.84,48l-0.09-0.09c-0.44-0.58-0.81-1.22-1.25-1.8l-0.15-0.2
		l-0.99-1.36l-0.15-0.2c-0.35-0.44-0.64-0.87-0.84-1.31l-0.03-0.03c0,0.2,0,0.35-0.03,0.44v0.23c0.03,0.55,0.06,1.07,0.06,1.62
		c0,0.15,0,0.23-0.03,0.29c-0.03,0.23,0,0.46-0.03,0.7c0,0.12,0,0.2-0.03,0.23v0.29c0,0.55-0.03,1.07-0.03,1.62v0.23
		c0,0.55,0.15,1.07,0.03,1.62l-0.06,0.23c-0.09,0.26-0.29,0.41-0.55,0.46c-0.09,0-0.15,0.03-0.23,0.03c-0.26-0.03-0.52-0.03-0.81,0
		c-0.12,0-0.2,0-0.26,0.03c-0.61,0-1.54,0.26-1.97-0.35l-0.09-0.23c-0.09-0.35,0.03-0.75,0-1.07V49.1c0-0.7,0.06-1.39,0.03-2.09
		v-0.26c0-0.44,0.03-0.87,0-1.31v-0.29c0.03-0.44,0.03-0.9,0-1.36c0-0.09,0.03-0.17,0.03-0.26v-1.51c-0.03-0.06-0.03-0.15-0.03-0.29
		c0.03-0.96,0-2-0.09-2.96c0.03-0.06,0.03-0.12,0.03-0.2c0-0.09,0.03-0.12,0.03-0.2v-0.23c0-0.09,0.03-0.2,0.03-0.29
		c0-0.15,0-0.23,0.03-0.32c-0.09-0.26-0.06-0.55-0.09-0.81v-0.29c-0.03-0.67,0.09-1.25,0-1.91v-0.29c-0.03-0.49,0.03-0.99,0.06-1.48
		v-0.61c-0.03-0.38,0.03-0.73,0.17-1.04l0.12-0.23l0.2-0.17c0.78-0.26,1.54-0.12,2.32-0.12h0.29c0.46,0,0.93,0.03,1.39,0h0.29
		c0.7-0.09,1.42-0.09,2.12,0c0.09,0,0.15,0.03,0.23,0.03c0.55-0.03,1.02,0.09,1.51,0.17c0.09,0,0.2,0.03,0.29,0.03
		c0.9,0.03,1.68,0.49,2.47,0.93l0.29,0.15l0.26,0.2l0.23,0.2l0.44,0.52l0.17,0.23c0.44,0.7,0.52,1.51,0.78,2.29
		c0,0.12,0.03,0.2,0.06,0.32c0.09,0.67,0,1.22-0.03,1.89l-0.06,0.26c-0.09,0.67-0.29,1.28-0.55,1.8l-0.15,0.26
		c-0.23,0.44-0.52,0.78-0.87,1.07l-0.23,0.2c-0.2,0.2-0.46,0.35-0.7,0.49c-0.12,0.09-0.2,0.12-0.26,0.15l-0.52,0.35
		c-0.09,0.03-0.17,0.09-0.2,0.12l-0.2,0.12c-0.38,0.15-0.81,0.26-1.25,0.29c0,0.03,0,0.03,0.03,0.06l0.09,0.12
		c0.2,0.35,0.44,0.7,0.7,1.07l0.15,0.2l1.28,1.71l0.15,0.2c0.46,0.61,0.9,1.19,1.33,1.86l0.2,0.23c0.2,0.32,0.46,0.58,0.7,0.9
		c0,0.03,0,0.03,0.03,0.06l0.09,0.12l0.26,0.38c0.26,0.2,0.41,0.46,0.49,0.73C21.57,50.58,21.28,50.9,20.96,50.99z M11.36,37.1
		c0.03,0.06,0.03,0.15,0.03,0.26c0,0.09-0.03,0.15-0.03,0.23v0.03h-0.03v0.23C11.3,37.91,11.3,38,11.3,38.11
		c0,0.15,0,0.23,0.03,0.29v0.52H12c0.32,0,0.58,0.03,0.9,0.03h0.32c0.84,0.03,1.71,0.09,2.52-0.15L16,38.69
		c0.29-0.15,0.49-0.35,0.58-0.61c0.09-0.09,0.09-0.17,0.12-0.26l0.09-0.32l0.06-0.23c0.03-0.23,0.03-0.44-0.03-0.64
		c0-0.09-0.03-0.12-0.03-0.2v-0.09l-0.06-0.26c-0.09-0.2-0.2-0.41-0.29-0.55c-0.06-0.12-0.12-0.2-0.17-0.26
		c-0.35-0.67-1.25-0.81-1.97-0.9c-0.06,0.03-0.15,0.03-0.26,0.03c-0.78,0-1.48-0.09-2.2,0h-0.2c-0.15,0.03-0.2,0.09-0.23,0.12
		c-0.12,0.23-0.03,0.61-0.03,0.93v0.29c0,0.46,0.06,0.9,0.03,1.36H11.36z M11.33,42.78l0.03-0.03h-0.03V42.78z"/>
	<path class="st0" d="M37.63,32.48c0,0.2,0,0.38-0.03,0.58v0.23c0,1.02,0.03,1.94,0.03,2.09v2.55c-0.03,0.44-0.06,0.78-0.06,1.16
		c0,0.12-0.03,0.2-0.03,0.29c0.09,0.84-0.03,1.71-0.03,2.55v6.24c-0.03,0.2-0.06,0.35-0.06,0.55v0.26
		c-0.09,0.67,0.17,1.33-0.06,1.83c-0.38,0.7-1.39,0.12-2.2,0.29h-0.29c-0.41,0.03-0.78,0-1.1-0.12l-0.2-0.15
		c-0.32-0.26-0.09-1.04-0.09-1.62v-0.2c0-1.89-0.03-4.47-0.03-5.92c-1.83-0.03-3.57-0.06-5.4-0.06c-0.09,0-0.17,0-0.2-0.03v5.16
		c-0.03,0.2-0.06,0.35-0.06,0.55v0.26c-0.09,0.67,0.17,1.33-0.06,1.83c-0.38,0.7-1.39,0.12-2.2,0.29h-0.29
		c-0.41,0.03-0.78,0-1.1-0.12l-0.2-0.15c-0.32-0.26-0.09-1.04-0.09-1.62v-0.2c0-2.44-0.03-6.12-0.03-6.96v-1.33
		c-0.03-0.84,0.03-1.68,0.06-2.52c0-0.09,0.03-0.17,0.03-0.26v-0.29c0-0.06,0-0.09,0.03-0.12v-5.45c-0.06-0.23-0.09-0.44-0.06-0.61
		c0-0.12,0.03-0.2,0.03-0.29c0.15-0.38,0.44-0.49,0.75-0.58c0.09,0,0.17-0.03,0.26-0.03c0.9-0.03,1.68-0.09,2.58,0.06
		c0.09,0.03,0.15,0.09,0.17,0.12c0.09,0.03,0.12,0.09,0.15,0.17c0.15,0.26,0.2,0.67,0.12,1.02C28,31.96,28,32.05,28,32.16v0.32
		c0,0.2,0,0.38-0.03,0.58v0.23c0,1.02,0.03,1.94,0.03,2.09v2.55c-0.03,0.38-0.06,0.7-0.06,1.04h0.15c1.83,0,3.6,0.03,5.42,0.06
		c0-0.32,0.03-0.52,0.03-0.84c0-0.09,0.03-0.17,0.03-0.26v-0.29c0-0.06,0-0.09,0.03-0.12v-5.45c-0.06-0.23-0.09-0.44-0.06-0.61
		c0-0.12,0.03-0.2,0.03-0.29c0.15-0.38,0.44-0.49,0.75-0.58c0.09,0,0.17-0.03,0.26-0.03c0.9-0.03,1.68-0.09,2.58,0.06
		c0.09,0.03,0.15,0.09,0.17,0.12c0.09,0.03,0.12,0.09,0.15,0.17c0.15,0.26,0.2,0.67,0.12,1.02c0.03,0.03,0.03,0.12,0.03,0.23V32.48z
		"/>
	<path class="st0" d="M45,48.73v0.26c-0.09,0.67,0.17,1.33-0.06,1.83c-0.38,0.7-1.39,0.12-2.2,0.29h-0.29
		c-0.41,0.03-0.78,0-1.1-0.12c-0.09-0.09-0.12-0.06-0.2-0.15c-0.32-0.26-0.09-1.04-0.09-1.62v-0.2c0-2.44-0.03-6.12-0.03-6.96v-1.33
		c-0.03-0.84,0.03-1.68,0.06-2.52c0-0.09,0.03-0.17,0.03-0.26v-0.29c0-0.06,0-0.09,0.03-0.12v-5.45c-0.06-0.23-0.09-0.44-0.06-0.61
		c0-0.12,0.03-0.2,0.03-0.29c0.15-0.38,0.44-0.49,0.75-0.58c0.09,0,0.17-0.03,0.26-0.03c0.9-0.03,1.68-0.09,2.58,0.06
		c0.09,0.03,0.15,0.09,0.17,0.12c0.09,0.03,0.12,0.09,0.15,0.17c0.15,0.26,0.2,0.67,0.12,1.02c0.03,0.03,0.03,0.12,0.03,0.23v0.32
		c0,0.2,0,0.38-0.03,0.58v0.23c0,1.02,0.03,1.94,0.03,2.09v2.55c-0.03,0.44-0.06,0.78-0.06,1.16c0,0.12-0.03,0.2-0.03,0.29
		c0.09,0.84-0.03,1.71-0.03,2.55v6.24C45.03,48.38,45,48.52,45,48.73z"/>
	<path class="st0" d="M63.39,32.48c0,0.2,0,0.38-0.03,0.58v0.23c0,1.02,0.03,1.94,0.03,2.09v2.55c-0.03,0.44-0.06,0.78-0.06,1.16
		c0,0.12-0.03,0.2-0.03,0.29c0.09,0.84-0.03,1.71-0.03,2.55v6.24c-0.03,0.2-0.06,0.35-0.06,0.55v0.41
		c-0.03,0.61,0.15,1.22-0.06,1.68c-0.38,0.7-1.39,0.12-2.2,0.29h-0.64c-0.78,0.15-1.02-0.84-1.39-1.31
		c-0.03-0.09-0.09-0.15-0.15-0.23c-0.38-0.67-0.73-1.28-1.16-1.94l-0.15-0.23l-0.2-0.35l-0.12-0.17c0-0.12-0.06-0.23-0.15-0.38
		c-0.55-0.55-0.78-1.28-1.25-1.89l-0.15-0.2l-0.12-0.2c-0.44-0.78-0.78-1.54-1.33-2.26c-0.03-0.09-0.03-0.12-0.12-0.2l-0.09-0.2
		c-0.03-0.09-0.03-0.12-0.12-0.2c-0.03-0.09-0.09-0.15-0.12-0.17c-0.49-0.67-0.73-1.36-1.16-2.06c0.03,0.55,0.09,1.04,0.06,1.6v0.2
		c-0.03,0.35-0.03,0.7-0.03,1.04v6.24c-0.09,0.35-0.06,0.7-0.06,1.04v0.26c0.03,0.49,0.15,0.96-0.06,1.33
		c-0.38,0.7-1.39,0.12-2.2,0.29h-0.29c-0.41,0.03-0.78,0-1.1-0.12l-0.2-0.15c-0.32-0.26-0.09-1.04-0.09-1.62v-0.2
		c0-2.44-0.03-6.12-0.03-6.96v-1.6l0.09-2.52v-0.29c0-0.03,0.03-0.06,0.03-0.09v-5.48c-0.06-0.23-0.09-0.44-0.06-0.61
		c0-0.12,0.03-0.2,0.03-0.29c0.15-0.38,0.44-0.49,0.75-0.58c0.09,0,0.17-0.03,0.26-0.03c0.26,0,0.52-0.03,0.75-0.03h0.26
		c0.49-0.03,0.99-0.06,1.42,0.15c0.09,0.03,0.15,0.09,0.17,0.12l0.12,0.15l0.09,0.15c0.2,0.67,0.7,1.19,1.07,1.8
		c0.03,0.09,0.03,0.12,0.12,0.2l0.15,0.2l0.12,0.23l0.55,0.9l0.15,0.2c0.09,0.09,0.15,0.17,0.17,0.23c0.03,0.06,0.09,0.15,0.12,0.26
		c0.2,0.44,0.46,0.81,0.7,1.25c0.06,0.09,0.12,0.15,0.15,0.23l0.44,0.9l0.15,0.23c0.15,0.32,0.32,0.61,0.55,0.9l0.17,0.23
		c0.46,0.55,0.75,1.16,1.07,1.83l0.15,0.23l0.12,0.2l0.15,0.2c0.26,0.38,0.49,0.78,0.7,1.22v-2.12c0-0.67-0.03-1.31,0.06-1.97V38.2
		c0-0.09,0.03-0.17,0.03-0.26c-0.06-0.49-0.09-0.99-0.09-1.51c0-0.12,0-0.2,0.03-0.26c0-0.75,0.03-1.51,0.09-2.26v-1.83
		c-0.06-0.23-0.09-0.44-0.06-0.61c0-0.12,0.03-0.2,0.03-0.29c0.15-0.38,0.44-0.49,0.75-0.58c0.09,0,0.17-0.03,0.26-0.03
		c0.9-0.03,1.68-0.09,2.58,0.06c0.09,0.03,0.15,0.09,0.17,0.12c0.09,0.03,0.12,0.09,0.15,0.17c0.15,0.26,0.2,0.67,0.12,1.02
		c0.03,0.03,0.03,0.12,0.03,0.23V32.48z"/>
	<path class="st0" d="M79.08,47.77c-0.09,0.9,0.12,1.83-0.15,2.76l-0.06,0.17l-0.15,0.2c-0.26,0.32-1.04,0.09-1.62,0.09h-0.2
		c-1.62,0-3.63,0.03-5.11,0.03h-0.64c-0.9,0.03-1.77-0.06-2.67,0.03H68.2c-0.46,0.03-0.87,0.03-1.31-0.2
		c-0.03-0.03-0.09-0.09-0.12-0.17c-0.12-0.35,0.03-0.96,0.03-1.45v-0.2c0-2.44-0.03-6.12-0.03-6.96v-1.33
		c-0.03-0.55,0-1.02,0.03-1.57v-0.32c0.03-1.04,0-2.09,0.09-3.13v-0.2c-0.03-0.73,0-1.57,0-2.38v-1.04
		c-0.06-0.23-0.09-0.44-0.06-0.61c0-0.12,0.03-0.2,0.03-0.29c0.15-0.38,0.44-0.49,0.75-0.58c0.09,0,0.17-0.03,0.26-0.03
		c0.81-0.03,1.6-0.09,2.41,0.03h5.77c0.2,0.03,0.35,0.06,0.55,0.06h0.26c0.67,0.09,1.33-0.17,1.83,0.06
		c0.35,0.2,0.38,0.52,0.35,0.96c0,0.09-0.03,0.2-0.03,0.32c-0.12,0.55,0,1.04-0.03,1.6v0.17c-0.03,0.23-0.09,0.41-0.12,0.55
		l-0.15,0.2c-0.26,0.32-1.04,0.09-1.62,0.09h-0.2c-2,0-4.52,0.03-6,0.03c0,0.38,0.03,0.67,0.03,0.75v2.55
		c-0.03,0.15-0.03,0.29-0.03,0.41h5.16c0.2,0.03,0.35,0.06,0.55,0.06h0.61c0.49,0.09,0.99-0.15,1.42,0.12
		c0.2,0.15,0.29,0.38,0.26,0.64v0.2l-0.09,0.96v0.32c-0.03,0.2-0.03,0.38-0.03,0.58v0.29c0.15,1.16-1.19,0.75-1.89,0.84h-0.35
		c-2,0-4.41,0.03-5.74,0.03v0.26c0.03,0.9,0,1.71,0,2.61v1.74h5.25c0.2,0.03,0.35,0.06,0.55,0.06h0.26
		c0.67,0.09,1.33-0.17,1.83,0.06c0.17,0.09,0.29,0.23,0.32,0.38L79.08,47.77z"/>
	<path class="st0" d="M86.32,35.59c-0.32,0.55-0.32,1.33,0.12,1.8l0.2,0.23c0.55,0.49,1.22,0.78,1.91,1.02
		c0.03,0,0.12,0.03,0.23,0.06c0.9,0.44,1.89,0.67,2.81,1.04c0.12,0.03,0.2,0.09,0.26,0.12c0.61,0.23,1.22,0.44,1.77,0.87l0.26,0.23
		l0.46,0.52l0.15,0.17c0.61,0.7,0.96,1.51,1.02,2.47c0.03,0.09,0.03,0.17,0.03,0.29c0.09,0.29,0.12,0.61,0.12,0.93
		c0,0.12-0.03,0.2-0.03,0.32c-0.15,0.84-0.38,1.68-0.75,2.47l-0.09,0.2l-0.12,0.2c-0.15,0.32-0.35,0.58-0.55,0.84l-0.23,0.26
		c-0.46,0.55-1.07,0.84-1.74,1.16l-0.38,0.15c-1.25,0.46-2.58,0.29-3.89,0.38h-0.44c-0.9-0.2-1.83-0.35-2.64-0.84l-0.23-0.17
		c-0.35-0.23-0.7-0.52-1.02-0.84l-0.2-0.2c-0.2-0.26-0.41-0.58-0.61-0.93c-0.09-0.09-0.06-0.15-0.15-0.23l-0.12-0.23l-0.09-0.23
		c-0.35-0.67-0.44-1.36-0.55-2.09c-0.03-0.03-0.03-0.06-0.03-0.12v-0.2c-0.12-0.49-0.17-1.16,0.41-1.36
		c0.12-0.06,0.2-0.09,0.29-0.09c0.49-0.09,1.04,0,1.51-0.09c0.06,0.03,0.15,0.03,0.26,0.03c0.38,0,0.73,0.03,1.04,0.12
		c0.12,0.03,0.2,0.09,0.29,0.12l0.17,0.17l0.12,0.2c0.09,0.15,0.12,0.35,0.12,0.55c0,0.09,0.03,0.12,0.03,0.2l0.06,0.29
		c0.09,0.35,0.2,0.7,0.46,1.02c0.09,0.15,0.17,0.23,0.26,0.35l0.17,0.15l0.17,0.12c0.78,0.38,1.71,0.44,2.55,0.35l0.29-0.09
		c0.15-0.03,0.29-0.12,0.44-0.2l0.2-0.15c0.55-0.46,0.78-1.1,0.81-1.8v-0.29l-0.06-0.23l-0.09-0.26c-0.03-0.03-0.09-0.09-0.12-0.17
		c-0.12-0.15-0.23-0.29-0.38-0.38c-0.09-0.09-0.15-0.12-0.23-0.15c-0.78-0.46-1.62-0.84-2.52-1.07l-0.29-0.09
		c-0.9-0.38-1.86-0.64-2.7-1.19l-0.2-0.09l-0.17-0.09c-0.61-0.38-1.1-0.81-1.54-1.31l-0.2-0.2c-0.15-0.15-0.26-0.29-0.38-0.49
		c-0.09-0.12-0.12-0.2-0.15-0.26c-0.44-0.84-0.35-1.77-0.44-2.67c0-0.12,0.03-0.2,0.03-0.29c0.03-0.55,0.15-0.99,0.35-1.45
		l0.15-0.46c0.09-0.26,0.23-0.55,0.41-0.84c0.15-0.32,0.35-0.58,0.55-0.84l0.23-0.26c0.46-0.55,1.07-0.84,1.74-1.16l0.38-0.15
		c1.25-0.46,2.58-0.29,3.89-0.38h0.44c0.9,0.2,1.83,0.35,2.64,0.84l0.23,0.17c0.35,0.23,0.7,0.52,1.02,0.84l0.2,0.2
		c0.29,0.35,0.52,0.7,0.67,1.04c0.09,0.15,0.2,0.35,0.29,0.55c0.23,0.38,0.32,0.75,0.41,1.19l0.06,0.23l0.12,0.9
		c0.03,0.06,0.03,0.15,0.03,0.29c-0.03,0.61-0.55,0.99-1.13,0.99c-0.06-0.03-0.15-0.03-0.26-0.03c-0.81-0.09-1.71,0.09-2.49-0.17
		c-0.15-0.15-0.23-0.29-0.29-0.49c-0.09-0.2-0.12-0.41-0.15-0.61l-0.06-0.26c-0.09-0.26-0.2-0.49-0.41-0.75
		c-0.09-0.15-0.17-0.23-0.26-0.35l-0.17-0.15l-0.17-0.12c-0.78-0.38-1.71-0.44-2.55-0.35L87.6,34.4c-0.32,0.09-0.58,0.26-0.81,0.52
		l-0.2,0.2c-0.09,0.12-0.12,0.2-0.15,0.26C86.38,35.44,86.35,35.5,86.32,35.59z"/>
	<path class="st0" d="M110.86,33.93c0,0.06-0.03,0.12-0.06,0.2c-0.2,0.55-0.67,0.61-1.22,0.52h-0.23c-0.2-0.03-0.41-0.03-0.61-0.03
		h-1.13c-0.03,0.03-0.12,0.03-0.2,0.03c-0.32,0-0.55,0-0.9-0.03c0.03,0.15-0.03,0.26-0.03,0.41v0.17c0,1.91,0.03,3.77,0.03,4.35
		v1.33c0.03,0.55,0,1.02-0.03,1.57v0.32c-0.03,1.04,0,2.09-0.09,3.13v0.2c0.03,0.73,0,1.57,0,2.38v1.04
		c0.06,0.23,0.09,0.44,0.06,0.61c0,0.12-0.03,0.2-0.03,0.29c-0.15,0.38-0.44,0.49-0.75,0.58c-0.09,0-0.17,0.03-0.26,0.03
		c-0.35,0-0.67,0.03-1.02,0.03h-0.23c-0.09,0.03-0.17,0.03-0.32,0.03s-0.32,0-0.46-0.03c-0.12,0-0.2,0-0.26-0.03h-0.2l-0.17-0.06
		c-0.61-0.38-0.38-1.31-0.38-2v-0.26c-0.09-0.9-0.06-1.77-0.06-2.67v-0.49c-0.09-0.49,0.12-0.96,0.15-1.45v-0.29
		c-0.09-0.78,0-1.6,0-2.38v-0.29c-0.03-0.09-0.03-0.17-0.03-0.29c0.03-0.23,0.03-0.46,0-0.7v-2.23c-0.03-0.61-0.03-1.25,0.06-1.86
		v-0.32c0-0.38,0.03-0.75-0.09-1.1h-0.09c-0.09,0-0.15,0-0.2-0.03h-0.49c-0.15,0-0.23,0-0.29,0.03c-0.73,0-1.16,0-1.89-0.03h-0.2
		c-0.2,0-0.41,0.03-0.61,0.03h-0.2l-0.23-0.12c-0.09-0.12-0.12-0.2-0.15-0.26l-0.09-0.26c-0.09-0.84,0-1.65-0.03-2.49
		c-0.03-0.09-0.03-0.17,0-0.23c0.03-0.38,0.17-0.58,0.38-0.67c0.15-0.06,0.32-0.06,0.52,0c0.7-0.09,1.36-0.03,2.03,0h0.58
		c0.2,0,0.35,0,0.55-0.03h0.23c0.44,0,0.75,0,1.19-0.03h0.7c0.09,0.03,0.2,0.03,0.35,0.03c0.29-0.03,0.58-0.03,0.9,0h0.32
		c0.58,0.09,1.19,0,1.77,0h1.13c0.67,0.03,1.42-0.2,2,0.12c0.52,0.35,0.2,1.07,0.29,1.68c-0.03,0.06-0.03,0.15-0.03,0.26
		C110.83,33.09,110.95,33.5,110.86,33.93z"/>
	<path class="st0" d="M127.19,40.98c0.03,0.93,0.09,1.89,0,2.84c-0.03,0.38-0.03,0.75-0.12,1.19c-0.03,0.12-0.03,0.26-0.03,0.38
		l-0.15,0.9c0,0.09-0.03,0.2-0.03,0.29c0,0.09-0.03,0.17-0.03,0.26c-0.38,0.84-0.75,1.68-1.33,2.41l-0.2,0.2
		c-0.32,0.32-0.67,0.61-1.02,0.84l-0.23,0.17c-0.81,0.49-1.74,0.64-2.64,0.84h-0.44c-1.31-0.09-2.64,0.09-3.89-0.38l-0.38-0.15
		c-0.67-0.32-1.28-0.61-1.74-1.16l-0.23-0.26c-0.2-0.26-0.41-0.52-0.55-0.84c-0.2-0.38-0.41-0.81-0.55-1.31
		c-0.26-0.73-0.38-1.51-0.46-2.29c-0.09-0.46-0.12-0.93-0.15-1.39v-0.26c-0.03-0.78,0-1.51-0.09-2.29v-0.26
		c-0.03-0.73-0.03-1.42,0.06-2.15c0-0.09,0.03-0.17,0.03-0.26l0.06-0.78c0-0.09,0.03-0.17,0.03-0.26l0.06-0.55
		c0.09-0.78,0.2-1.57,0.46-2.29c0.15-0.49,0.35-0.93,0.55-1.31c0.15-0.32,0.35-0.58,0.55-0.84l0.23-0.26
		c0.46-0.55,1.07-0.84,1.74-1.16l0.38-0.15c1.25-0.46,2.58-0.29,3.89-0.38h0.44c0.9,0.2,1.83,0.35,2.64,0.84l0.23,0.17
		c0.35,0.23,0.7,0.52,1.02,0.84l0.2,0.2c0.29,0.35,0.52,0.7,0.67,1.04c0.09,0.15,0.2,0.35,0.29,0.55c0.46,0.78,0.46,1.65,0.61,2.49
		l0.06,0.55v0.2l0.06,0.58c0.09,0.96,0.03,1.91,0,2.84V40.98z M122.98,42.46c-0.03-0.49,0.09-0.99,0.09-1.48v-0.26
		c0-0.32-0.03-0.55-0.06-0.81v-1.16c0-0.26,0-0.52,0.03-0.75l-0.06-0.32c0-0.23-0.03-0.58-0.15-0.81c-0.09-0.58-0.17-1.13-0.55-1.6
		c-0.09-0.15-0.17-0.23-0.26-0.35l-0.17-0.15l-0.17-0.12c-0.78-0.38-1.71-0.44-2.55-0.35l-0.29,0.09c-0.32,0.09-0.58,0.26-0.81,0.52
		l-0.2,0.2c-0.09,0.12-0.12,0.2-0.15,0.26c-0.09,0.15-0.17,0.26-0.23,0.41c-0.09,0.29-0.17,0.61-0.2,0.96
		c0,0.09-0.03,0.17-0.03,0.26c-0.06,0.32-0.09,0.64-0.09,0.93c-0.03,0.44-0.06,0.78-0.06,1.16c0,0.12-0.03,0.2-0.03,0.29
		c0.09,0.84-0.03,1.71-0.03,2.55c0,0.12,0.03,0.2,0.03,0.32c0,0.09,0.03,0.17,0.03,0.29c0,0.38,0.03,0.73,0.06,1.16
		c0,0.32,0.03,0.61,0.09,0.93c0,0.09,0.03,0.17,0.03,0.26c0.03,0.35,0.12,0.67,0.2,0.96c0.06,0.15,0.15,0.26,0.23,0.41
		c0.03,0.06,0.06,0.15,0.15,0.26l0.2,0.2c0.23,0.26,0.49,0.44,0.81,0.52l0.29,0.09c0.84,0.09,1.77,0.03,2.55-0.35l0.17-0.12
		l0.17-0.15c0.09-0.12,0.17-0.2,0.26-0.35c0.38-0.46,0.46-1.02,0.55-1.6c0.12-0.23,0.15-0.58,0.15-0.81l0.06-0.32
		c-0.03-0.09-0.03-0.2-0.03-0.38v-0.61C123.01,42.58,122.98,42.55,122.98,42.46z"/>
	<path class="st0" d="M145.05,32.48c0,0.2,0,0.38-0.03,0.58v0.23c0,1.02,0.03,1.94,0.03,2.09v2.55c-0.03,0.44-0.06,0.78-0.06,1.16
		c0,0.12-0.03,0.2-0.03,0.29c0.09,0.84-0.03,1.71-0.03,2.55v6.24c-0.03,0.2-0.06,0.35-0.06,0.55v0.41
		c-0.03,0.61,0.15,1.22-0.06,1.68c-0.38,0.7-1.39,0.12-2.2,0.29h-0.64c-0.78,0.15-1.02-0.84-1.39-1.31
		c-0.03-0.09-0.09-0.15-0.15-0.23c-0.38-0.67-0.73-1.28-1.16-1.94l-0.15-0.23l-0.2-0.35l-0.12-0.17c0-0.12-0.06-0.23-0.15-0.38
		c-0.55-0.55-0.78-1.28-1.25-1.89l-0.15-0.2l-0.12-0.2c-0.44-0.78-0.78-1.54-1.33-2.26c-0.03-0.09-0.03-0.12-0.12-0.2l-0.09-0.2
		c-0.03-0.09-0.03-0.12-0.12-0.2c-0.03-0.09-0.09-0.15-0.12-0.17c-0.49-0.67-0.73-1.36-1.16-2.06c0.03,0.55,0.09,1.04,0.06,1.6v0.2
		c-0.03,0.35-0.03,0.7-0.03,1.04v6.24c-0.09,0.35-0.06,0.7-0.06,1.04v0.26c0.03,0.49,0.15,0.96-0.06,1.33
		c-0.38,0.7-1.39,0.12-2.2,0.29h-0.29c-0.41,0.03-0.78,0-1.1-0.12l-0.2-0.15c-0.32-0.26-0.09-1.04-0.09-1.62v-0.2
		c0-2.44-0.03-6.12-0.03-6.96v-1.6l0.09-2.52v-0.29c0-0.03,0.03-0.06,0.03-0.09v-5.48c-0.06-0.23-0.09-0.44-0.06-0.61
		c0-0.12,0.03-0.2,0.03-0.29c0.15-0.38,0.44-0.49,0.75-0.58c0.09,0,0.17-0.03,0.26-0.03c0.26,0,0.52-0.03,0.75-0.03h0.26
		c0.49-0.03,0.99-0.06,1.42,0.15c0.09,0.03,0.15,0.09,0.17,0.12l0.12,0.15l0.09,0.15c0.2,0.67,0.7,1.19,1.07,1.8
		c0.03,0.09,0.03,0.12,0.12,0.2l0.15,0.2l0.12,0.23l0.55,0.9l0.15,0.2c0.09,0.09,0.15,0.17,0.17,0.23c0.03,0.06,0.09,0.15,0.12,0.26
		c0.2,0.44,0.46,0.81,0.7,1.25c0.06,0.09,0.12,0.15,0.15,0.23l0.44,0.9l0.15,0.23c0.15,0.32,0.32,0.61,0.55,0.9l0.17,0.23
		c0.46,0.55,0.75,1.16,1.07,1.83l0.15,0.23l0.12,0.2l0.15,0.2c0.26,0.38,0.49,0.78,0.7,1.22v-2.12c0-0.67-0.03-1.31,0.06-1.97V38.2
		c0-0.09,0.03-0.17,0.03-0.26c-0.06-0.49-0.09-0.99-0.09-1.51c0-0.12,0-0.2,0.03-0.26c0-0.75,0.03-1.51,0.09-2.26v-1.83
		c-0.06-0.23-0.09-0.44-0.06-0.61c0-0.12,0.03-0.2,0.03-0.29c0.15-0.38,0.44-0.49,0.75-0.58c0.09,0,0.17-0.03,0.26-0.03
		c0.9-0.03,1.68-0.09,2.58,0.06c0.09,0.03,0.15,0.09,0.17,0.12c0.09,0.03,0.12,0.09,0.15,0.17c0.15,0.26,0.2,0.67,0.12,1.02
		c0.03,0.03,0.03,0.12,0.03,0.23V32.48z"/>
	<path class="st0" d="M160.74,47.77c-0.09,0.9,0.12,1.83-0.15,2.76l-0.06,0.17l-0.15,0.2c-0.26,0.32-1.04,0.09-1.62,0.09h-0.2
		c-1.62,0-3.63,0.03-5.11,0.03h-0.64c-0.9,0.03-1.77-0.06-2.67,0.03h-0.29c-0.46,0.03-0.87,0.03-1.31-0.2
		c-0.03-0.03-0.09-0.09-0.12-0.17c-0.12-0.35,0.03-0.96,0.03-1.45v-0.2c0-2.44-0.03-6.12-0.03-6.96v-1.33
		c-0.03-0.55,0-1.02,0.03-1.57v-0.32c0.03-1.04,0-2.09,0.09-3.13v-0.2c-0.03-0.73,0-1.57,0-2.38v-1.04
		c-0.06-0.23-0.09-0.44-0.06-0.61c0-0.12,0.03-0.2,0.03-0.29c0.15-0.38,0.44-0.49,0.75-0.58c0.09,0,0.17-0.03,0.26-0.03
		c0.81-0.03,1.6-0.09,2.41,0.03h5.77c0.2,0.03,0.35,0.06,0.55,0.06h0.26c0.67,0.09,1.33-0.17,1.83,0.06
		c0.35,0.2,0.38,0.52,0.35,0.96c0,0.09-0.03,0.2-0.03,0.32c-0.12,0.55,0,1.04-0.03,1.6v0.17c-0.03,0.23-0.09,0.41-0.12,0.55
		l-0.15,0.2c-0.26,0.32-1.04,0.09-1.62,0.09h-0.2c-2,0-4.52,0.03-6,0.03c0,0.38,0.03,0.67,0.03,0.75v2.55
		c-0.03,0.15-0.03,0.29-0.03,0.41h5.16c0.2,0.03,0.35,0.06,0.55,0.06h0.61c0.49,0.09,0.99-0.15,1.42,0.12
		c0.2,0.15,0.29,0.38,0.26,0.64v0.2l-0.09,0.96v0.32c-0.03,0.2-0.03,0.38-0.03,0.58v0.29c0.15,1.16-1.19,0.75-1.89,0.84h-0.35
		c-2,0-4.41,0.03-5.74,0.03v0.26c0.03,0.9,0,1.71,0,2.61v1.74h5.25c0.2,0.03,0.35,0.06,0.55,0.06h0.26
		c0.67,0.09,1.33-0.17,1.83,0.06c0.17,0.09,0.29,0.23,0.32,0.38L160.74,47.77z"/>
	<path class="st0" d="M167.99,35.59c-0.32,0.55-0.32,1.33,0.12,1.8l0.2,0.23c0.55,0.49,1.22,0.78,1.91,1.02
		c0.03,0,0.12,0.03,0.23,0.06c0.9,0.44,1.89,0.67,2.81,1.04c0.12,0.03,0.2,0.09,0.26,0.12c0.61,0.23,1.22,0.44,1.77,0.87l0.26,0.23
		l0.46,0.52l0.15,0.17c0.61,0.7,0.96,1.51,1.02,2.47c0.03,0.09,0.03,0.17,0.03,0.29c0.09,0.29,0.12,0.61,0.12,0.93
		c0,0.12-0.03,0.2-0.03,0.32c-0.15,0.84-0.38,1.68-0.75,2.47l-0.09,0.2l-0.12,0.2c-0.15,0.32-0.35,0.58-0.55,0.84l-0.23,0.26
		c-0.46,0.55-1.07,0.84-1.74,1.16l-0.38,0.15c-1.25,0.46-2.58,0.29-3.89,0.38h-0.44c-0.9-0.2-1.83-0.35-2.64-0.84l-0.23-0.17
		c-0.35-0.23-0.7-0.52-1.02-0.84l-0.2-0.2c-0.2-0.26-0.41-0.58-0.61-0.93c-0.09-0.09-0.06-0.15-0.15-0.23l-0.12-0.23l-0.09-0.23
		c-0.35-0.67-0.44-1.36-0.55-2.09c-0.03-0.03-0.03-0.06-0.03-0.12v-0.2c-0.12-0.49-0.17-1.16,0.41-1.36
		c0.12-0.06,0.2-0.09,0.29-0.09c0.49-0.09,1.04,0,1.51-0.09c0.06,0.03,0.15,0.03,0.26,0.03c0.38,0,0.73,0.03,1.04,0.12
		c0.12,0.03,0.2,0.09,0.29,0.12l0.17,0.17l0.12,0.2c0.09,0.15,0.12,0.35,0.12,0.55c0,0.09,0.03,0.12,0.03,0.2l0.06,0.29
		c0.09,0.35,0.2,0.7,0.46,1.02c0.09,0.15,0.17,0.23,0.26,0.35l0.17,0.15l0.17,0.12c0.78,0.38,1.71,0.44,2.55,0.35l0.29-0.09
		c0.15-0.03,0.29-0.12,0.44-0.2l0.2-0.15c0.55-0.46,0.78-1.1,0.81-1.8v-0.29l-0.06-0.23l-0.09-0.26c-0.03-0.03-0.09-0.09-0.12-0.17
		c-0.12-0.15-0.23-0.29-0.38-0.38c-0.09-0.09-0.15-0.12-0.23-0.15c-0.78-0.46-1.62-0.84-2.52-1.07l-0.29-0.09
		c-0.9-0.38-1.86-0.64-2.7-1.19l-0.2-0.09l-0.17-0.09c-0.61-0.38-1.1-0.81-1.54-1.31l-0.2-0.2c-0.15-0.15-0.26-0.29-0.38-0.49
		c-0.09-0.12-0.12-0.2-0.15-0.26c-0.44-0.84-0.35-1.77-0.44-2.67c0-0.12,0.03-0.2,0.03-0.29c0.03-0.55,0.15-0.99,0.35-1.45
		l0.15-0.46c0.09-0.26,0.23-0.55,0.41-0.84c0.15-0.32,0.35-0.58,0.55-0.84l0.23-0.26c0.46-0.55,1.07-0.84,1.74-1.16l0.38-0.15
		c1.25-0.46,2.58-0.29,3.89-0.38h0.44c0.9,0.2,1.83,0.35,2.64,0.84l0.23,0.17c0.35,0.23,0.7,0.52,1.02,0.84l0.2,0.2
		c0.29,0.35,0.52,0.7,0.67,1.04c0.09,0.15,0.2,0.35,0.29,0.55c0.23,0.38,0.32,0.75,0.41,1.19l0.06,0.23l0.12,0.9
		c0.03,0.06,0.03,0.15,0.03,0.29c-0.03,0.61-0.55,0.99-1.13,0.99c-0.06-0.03-0.15-0.03-0.26-0.03c-0.81-0.09-1.71,0.09-2.49-0.17
		c-0.15-0.15-0.23-0.29-0.29-0.49c-0.09-0.2-0.12-0.41-0.15-0.61l-0.06-0.26c-0.09-0.26-0.2-0.49-0.41-0.75
		c-0.09-0.15-0.17-0.23-0.26-0.35l-0.17-0.15l-0.17-0.12c-0.78-0.38-1.71-0.44-2.55-0.35l-0.29,0.09c-0.32,0.09-0.58,0.26-0.81,0.52
		l-0.2,0.2c-0.09,0.12-0.12,0.2-0.15,0.26C168.05,35.44,168.02,35.5,167.99,35.59z"/>
</g>
</svg>
